<svg width="18" height="18" viewBox="0 0 18 18" fill="none" xmlns="http://www.w3.org/2000/svg">
<path d="M5.11987 6.58252V5.11975H15.3592V6.58252H5.11987ZM5.11987 9.50805V8.04528H15.3592V9.50805H5.11987ZM5.11987 12.4336V10.9708H15.3592V12.4336H5.11987ZM2.92572 6.58252C2.7185 6.58252 2.54491 6.5123 2.40498 6.37188C2.26504 6.23145 2.19483 6.05787 2.19434 5.85113C2.19385 5.6444 2.26406 5.47081 2.40498 5.33039C2.54589 5.18996 2.71947 5.11975 2.92572 5.11975C3.13197 5.11975 3.3058 5.18996 3.4472 5.33039C3.5886 5.47081 3.65857 5.6444 3.6571 5.85113C3.65564 6.05787 3.58543 6.2317 3.44647 6.37261C3.3075 6.51352 3.13392 6.58349 2.92572 6.58252ZM2.92572 9.50805C2.7185 9.50805 2.54491 9.43784 2.40498 9.29741C2.26504 9.15699 2.19483 8.9834 2.19434 8.77667C2.19385 8.56993 2.26406 8.39635 2.40498 8.25592C2.54589 8.1155 2.71947 8.04528 2.92572 8.04528C3.13197 8.04528 3.3058 8.1155 3.4472 8.25592C3.5886 8.39635 3.65857 8.56993 3.6571 8.77667C3.65564 8.9834 3.58543 9.15723 3.44647 9.29814C3.3075 9.43906 3.13392 9.50902 2.92572 9.50805ZM2.92572 12.4336C2.7185 12.4336 2.54491 12.3634 2.40498 12.2229C2.26504 12.0825 2.19483 11.9089 2.19434 11.7022C2.19385 11.4955 2.26406 11.3219 2.40498 11.1815C2.54589 11.041 2.71947 10.9708 2.92572 10.9708C3.13197 10.9708 3.3058 11.041 3.4472 11.1815C3.5886 11.3219 3.65857 11.4955 3.6571 11.7022C3.65564 11.9089 3.58543 12.0828 3.44647 12.2237C3.3075 12.3646 3.13392 12.4346 2.92572 12.4336Z" fill="#585858"/>
</svg>
